<?xml version="1.0" encoding="utf-8"?>
<!-- Generator: Adobe Illustrator 19.1.0, SVG Export Plug-In . SVG Version: 6.00 Build 0)  -->
<svg version="1.1" id="레이어_1" xmlns="http://www.w3.org/2000/svg" xmlns:xlink="http://www.w3.org/1999/xlink" x="0px"
	 y="0px" viewBox="-255 334 100 125" style="enable-background:new -255 334 100 125;" xml:space="preserve">
<style type="text/css">
	.st0{fill:#80CBC4;}
	.st1{fill:#FAFAFA;}
</style>
<g id="XMLID_1_">
	<g>
		<path class="st0" d="M-184.3,384.7l-2.1,12.2l-23.8,14.2c-0.8,0.5-1.1,1.5-0.6,2.4c0.3,0.5,0.9,0.8,1.5,0.8c0.3,0,0.6-0.1,0.9-0.2
			l21.3-12.7l-1.1,6.8l-20.4,12.2c-0.8,0.5-1.1,1.5-0.6,2.3c0.3,0.5,0.9,0.8,1.5,0.8c0.3,0,0.6-0.1,0.9-0.2l17.9-10.7l-4.7,27.9
			h-22.6l-9.4-55.8H-184.3z"/>
		<path class="st1" d="M-180.6,383.1c0,0,0,0.1,0,0.1l-9.9,59.2c-0.1,0.8-0.9,1.4-1.7,1.4h-25.5c-0.8,0-1.6-0.6-1.7-1.4l-9.9-59.2
			c0,0,0-0.1,0-0.1c0,0,0-0.1,0-0.1c0-0.1,0-0.1,0-0.2c0-0.1,0-0.2,0.1-0.3c0-0.1,0.1-0.2,0.1-0.3c0.1-0.1,0.1-0.2,0.2-0.3
			c0.1-0.1,0.1-0.1,0.2-0.2c0.1-0.1,0.2-0.1,0.3-0.2c0.1-0.1,0.2-0.1,0.3-0.1c0.1,0,0.1-0.1,0.2-0.1c0.1,0,0.1,0,0.1,0
			c0,0,0.1,0,0.1,0h45.4c0.1,0,0.1,0,0.1,0c0.1,0,0.1,0,0.1,0c0.1,0,0.1,0.1,0.2,0.1c0.1,0,0.2,0.1,0.3,0.1c0.1,0,0.2,0.1,0.3,0.2
			c0.1,0.1,0.2,0.1,0.2,0.2c0.1,0.1,0.1,0.2,0.2,0.3c0.1,0.1,0.1,0.2,0.1,0.3c0,0.1,0.1,0.2,0.1,0.3c0,0.1,0,0.1,0,0.2
			C-180.6,383-180.6,383.1-180.6,383.1z M-186.4,396.9l2.1-12.2h-41.4l9.4,55.8h22.6l4.7-27.9l-17.9,10.7c-0.3,0.2-0.6,0.2-0.9,0.2
			c-0.6,0-1.1-0.3-1.5-0.8c-0.5-0.8-0.2-1.9,0.6-2.3l20.4-12.2l1.1-6.8l-21.3,12.7c-0.3,0.2-0.6,0.2-0.9,0.2c-0.6,0-1.2-0.3-1.5-0.8
			c-0.5-0.8-0.2-1.9,0.6-2.4L-186.4,396.9z"/>
		<path class="st1" d="M-186.3,373.8c0.9,0,1.7,0.8,1.7,1.7s-0.8,1.7-1.7,1.7h-37.4c-0.9,0-1.7-0.8-1.7-1.7s0.8-1.7,1.7-1.7H-186.3z
			"/>
		<path class="st1" d="M-197.2,346.5c0.9,0.2,1.4,1.2,1.2,2.1l-5.6,19.9c-0.2,0.8-0.9,1.2-1.6,1.2c-0.1,0-0.3,0-0.5-0.1
			c-0.9-0.3-1.5-1.2-1.2-2.1l5.6-19.9C-199,346.8-198.1,346.3-197.2,346.5z"/>
	</g>
	<g>
	</g>
</g>
</svg>
