<?xml version="1.0" encoding="utf-8"?>
<!-- Generator: Adobe Illustrator 19.1.0, SVG Export Plug-In . SVG Version: 6.00 Build 0)  -->
<svg version="1.1" id="레이어_1" xmlns="http://www.w3.org/2000/svg" xmlns:xlink="http://www.w3.org/1999/xlink" x="0px"
	 y="0px" viewBox="-293 385 24 24" style="enable-background:new -293 385 24 24;" xml:space="preserve">
<style type="text/css">
	.st0{fill:#FFFFFF;}
	.st1{fill:#9E9E9E;}
	.st2{fill:#009688;}
</style>
<g>
	<g id="XMLID_1_">
		<g>
			<rect x="-271" y="386" class="st0" width="1" height="1"/>
			<path class="st1" d="M-270,401.5v2c0,0.3-0.2,0.5-0.5,0.5s-0.5-0.2-0.5-0.5v-2c0-0.3,0.2-0.5,0.5-0.5S-270,401.2-270,401.5z"/>
			<path class="st1" d="M-270,396v2c0,0.3-0.2,0.5-0.5,0.5s-0.5-0.2-0.5-0.5v-2c0-0.3,0.2-0.5,0.5-0.5S-270,395.7-270,396z"/>
			<path class="st1" d="M-270,390.5v2c0,0.3-0.2,0.5-0.5,0.5s-0.5-0.2-0.5-0.5v-2c0-0.3,0.2-0.5,0.5-0.5S-270,390.2-270,390.5z"/>
			<path class="st1" d="M-271.5,385h2c0.3,0,0.5,0.2,0.5,0.5v2c0,0.3-0.2,0.5-0.5,0.5h-2c-0.3,0-0.5-0.2-0.5-0.5v-2
				C-272,385.2-271.8,385-271.5,385z M-270,387v-1h-1v1H-270z"/>
			<path class="st1" d="M-271.5,406h2c0.3,0,0.5,0.2,0.5,0.5v2c0,0.3-0.2,0.5-0.5,0.5h-2c-0.3,0-0.5-0.2-0.5-0.5v-2
				C-272,406.2-271.8,406-271.5,406z M-270,408v-1h-1v1H-270z"/>
			<path class="st1" d="M-274.5,386c0.3,0,0.5,0.2,0.5,0.5s-0.2,0.5-0.5,0.5h-2c-0.3,0-0.5-0.2-0.5-0.5s0.2-0.5,0.5-0.5H-274.5z"/>
			<path class="st1" d="M-274.5,407c0.3,0,0.5,0.2,0.5,0.5s-0.2,0.5-0.5,0.5h-2c-0.3,0-0.5-0.2-0.5-0.5s0.2-0.5,0.5-0.5H-274.5z"/>
			<path class="st1" d="M-280,386c0.3,0,0.5,0.2,0.5,0.5s-0.2,0.5-0.5,0.5h-2c-0.3,0-0.5-0.2-0.5-0.5s0.2-0.5,0.5-0.5H-280z"/>
			<path class="st1" d="M-280,407c0.3,0,0.5,0.2,0.5,0.5s-0.2,0.5-0.5,0.5h-2c-0.3,0-0.5-0.2-0.5-0.5s0.2-0.5,0.5-0.5H-280z"/>
			<path class="st1" d="M-285.5,386c0.3,0,0.5,0.2,0.5,0.5s-0.2,0.5-0.5,0.5h-2c-0.3,0-0.5-0.2-0.5-0.5s0.2-0.5,0.5-0.5H-285.5z"/>
			<path class="st1" d="M-285.5,407c0.3,0,0.5,0.2,0.5,0.5s-0.2,0.5-0.5,0.5h-2c-0.3,0-0.5-0.2-0.5-0.5s0.2-0.5,0.5-0.5H-285.5z"/>
			<path class="st2" d="M-286.5,392h4c0.3,0,0.5,0.2,0.5,0.5v10c0,0.6-0.2,1.1-0.5,1.5h3c-0.3-0.4-0.5-0.9-0.5-1.5v-10
				c0-0.3,0.2-0.5,0.5-0.5h4c0.6,0,1.1,0.2,1.5,0.5V390h-14v2.5C-287.6,392.2-287.1,392-286.5,392z M-283,402.5V393h-3.5
				c-0.8,0-1.5,0.7-1.5,1.5c0,0.3-0.2,0.5-0.5,0.5s-0.5-0.2-0.5-0.5v-5c0-0.3,0.2-0.5,0.5-0.5h15c0.3,0,0.5,0.2,0.5,0.5v5
				c0,0.3-0.2,0.5-0.5,0.5s-0.5-0.2-0.5-0.5c0-0.8-0.7-1.5-1.5-1.5h-3.5v9.5c0,0.8,0.7,1.5,1.5,1.5c0.3,0,0.5,0.2,0.5,0.5
				s-0.2,0.5-0.5,0.5h-7c-0.3,0-0.5-0.2-0.5-0.5s0.2-0.5,0.5-0.5C-283.7,404-283,403.3-283,402.5z"/>
			<path class="st1" d="M-291,401.5v2c0,0.3-0.2,0.5-0.5,0.5s-0.5-0.2-0.5-0.5v-2c0-0.3,0.2-0.5,0.5-0.5S-291,401.2-291,401.5z"/>
			<path class="st1" d="M-291,396v2c0,0.3-0.2,0.5-0.5,0.5s-0.5-0.2-0.5-0.5v-2c0-0.3,0.2-0.5,0.5-0.5S-291,395.7-291,396z"/>
			<path class="st1" d="M-291,390.5v2c0,0.3-0.2,0.5-0.5,0.5s-0.5-0.2-0.5-0.5v-2c0-0.3,0.2-0.5,0.5-0.5S-291,390.2-291,390.5z"/>
			<path class="st1" d="M-291,387v-1h-1v1H-291z M-290,385.5v2c0,0.3-0.2,0.5-0.5,0.5h-2c-0.3,0-0.5-0.2-0.5-0.5v-2
				c0-0.3,0.2-0.5,0.5-0.5h2C-290.2,385-290,385.2-290,385.5z"/>
			<path class="st1" d="M-291,408v-1h-1v1H-291z M-290,408.5c0,0.3-0.2,0.5-0.5,0.5h-2c-0.3,0-0.5-0.2-0.5-0.5v-2
				c0-0.3,0.2-0.5,0.5-0.5h2c0.3,0,0.5,0.2,0.5,0.5V408.5z"/>
		</g>
		<g>
		</g>
	</g>
</g>
</svg>
