<?xml version="1.0" encoding="utf-8"?>
<!-- Generator: Adobe Illustrator 19.1.0, SVG Export Plug-In . SVG Version: 6.00 Build 0)  -->
<svg version="1.1" id="레이어_1" xmlns:sketch="http://www.bohemiancoding.com/sketch/ns"
	 xmlns="http://www.w3.org/2000/svg" xmlns:xlink="http://www.w3.org/1999/xlink" x="0px" y="0px" viewBox="-255 346.8 100 100.2"
	 style="enable-background:new -255 346.8 100 100.2;" xml:space="preserve">
<style type="text/css">
	.st0{fill:#9E9E9E;}
	.st1{fill:#009688;}
</style>
<title>memo_note</title>
<description>Created with Sketch (http://www.bohemiancoding.com/sketch)</description>
<g>
	<g id="XMLID_1_">
		<g>
			<path class="st0" d="M-155,360.4v80c0,1.6-1.3,3-3,3h-94c-1.7,0-3-1.3-3-3v-80c0-1.6,1.3-3,3-3h4v4h-1c-0.6,0-1,0.5-1,1v75
				c0,0.5,0.4,1,1,1h88c0.6,0,1-0.5,1-1v-75c0-0.5-0.4-1-1-1h-1v-4h4C-156.3,357.4-155,358.8-155,360.4z"/>
			<path class="st0" d="M-170.5,350.4c1.9,0,3.5,4,3.5,9s-1.6,9-3.5,9s-3.5-4-3.5-9S-172.4,350.4-170.5,350.4z"/>
			<path class="st1" d="M-177,419.4v3c0,0.6-0.4,1-1,1h-53c-0.6,0-1-0.5-1-1v-3c0-0.6,0.4-1,1-1h53
				C-177.4,418.4-177,418.9-177,419.4z"/>
			<path class="st1" d="M-177,401.4v3c0,0.6-0.4,1-1,1h-53c-0.6,0-1-0.5-1-1v-3c0-0.6,0.4-1,1-1h53
				C-177.4,400.4-177,400.9-177,401.4z"/>
			<path class="st1" d="M-177,383.4v3c0,0.6-0.4,1-1,1h-53c-0.6,0-1-0.5-1-1v-3c0-0.6,0.4-1,1-1h53
				C-177.4,382.4-177,382.9-177,383.4z"/>
			<rect x="-185" y="357.4" class="st0" width="5" height="4"/>
			<path class="st0" d="M-193.5,350.4c1.9,0,3.5,4,3.5,9s-1.6,9-3.5,9s-3.5-4-3.5-9S-195.4,350.4-193.5,350.4z"/>
			<rect x="-207" y="357.4" class="st0" width="4" height="4"/>
			<path class="st0" d="M-216.5,350.4c1.9,0,3.5,4,3.5,9s-1.6,9-3.5,9s-3.5-4-3.5-9S-218.4,350.4-216.5,350.4z"/>
			<rect x="-230" y="357.4" class="st0" width="5" height="4"/>
			<path class="st0" d="M-239.5,350.4c1.9,0,3.5,4,3.5,9s-1.6,9-3.5,9s-3.5-4-3.5-9S-241.4,350.4-239.5,350.4z"/>
		</g>
		<g>
		</g>
	</g>
</g>
</svg>
