<?xml version="1.0" encoding="utf-8"?>
<!-- Generator: Adobe Illustrator 19.1.0, SVG Export Plug-In . SVG Version: 6.00 Build 0)  -->
<svg version="1.1" id="layer1" xmlns="http://www.w3.org/2000/svg" xmlns:xlink="http://www.w3.org/1999/xlink" x="0px"
	 y="0px" viewBox="-255 334 100 100.1" style="enable-background:new -255 334 100 100.1;" xml:space="preserve">
<style type="text/css">
	.st0{fill:none;stroke:#FFFFFF;stroke-width:5;stroke-miterlimit:10;}
	.st1{fill:none;stroke:#FFFFFF;stroke-width:4;stroke-miterlimit:10;}
</style>
<path class="st0" d="M-236,390c0.3-16,13.8-28.9,29.4-29.4c16.3-0.6,30.7,12.4,31.8,29.4c-0.2,16.8-13.9,30.4-30.3,30.6
	C-222,420.8-236.3,406.8-236,390z"/>
<line class="st0" x1="-205.4" y1="350.3" x2="-205.4" y2="360.6"/>
<path class="st1" d="M-214,418.8c-1.4-5.9-2.6-14-2-23.5c1-16.1,6.7-28.3,10.6-35.1"/>
<path class="st1" d="M-205.4,360.1c4.4,5.2,10.4,13.5,14.8,25c4.5,11.4,5.7,21.6,6,28.4"/>
<path class="st1" d="M-231.5,375.7c2,0.8,5,2.1,8.4,4c5.4,3,6.2,4.3,9.4,5.2c1,0.3,6.9,1.9,11.6-1c3.3-2,3.2-4.5,7.4-9.8
	c2.6-3.3,5.1-5.6,6.8-7"/>
<path class="st1" d="M-235.5,389.8c9.5,1.2,16.5,3.5,21.3,5.4c4.3,1.8,7.8,3.6,13.6,4.2c6,0.6,10.6-0.6,12-1
	c7.2-2,11.9-6.1,14.2-8.4"/>
<path class="st0" d="M-220.4,350.3c2.6-0.3,6.5-0.6,11.2-0.3c3.4,0.2,4.9,0.5,8.2,0.7c2.8,0.2,6.9,0.2,11.9-0.3"/>
</svg>
