<?xml version="1.0" encoding="utf-8"?>
<!-- Generator: Adobe Illustrator 19.1.0, SVG Export Plug-In . SVG Version: 6.00 Build 0)  -->
<svg version="1.1" id="레이어_1" xmlns:sketch="http://www.bohemiancoding.com/sketch/ns"
	 xmlns="http://www.w3.org/2000/svg" xmlns:xlink="http://www.w3.org/1999/xlink" x="0px" y="0px" viewBox="-255 338.8 100 100.2"
	 style="enable-background:new -255 338.8 100 100.2;" xml:space="preserve">
<style type="text/css">
	.st0{fill:#757575;}
	.st1{fill:#009688;}
</style>
<title>memo_note</title>
<description>Created with Sketch (http://www.bohemiancoding.com/sketch)</description>
<g sketch:type="MSPage">
	<g id="XMLID_1_">
		<g>
			<path class="st0" d="M-155,352.2v80c0,1.6-1.3,3-3,3h-94c-1.7,0-3-1.3-3-3v-80c0-1.6,1.3-3,3-3h4v4h-1c-0.6,0-1,0.5-1,1v75
				c0,0.5,0.4,1,1,1h88c0.6,0,1-0.5,1-1v-75c0-0.5-0.4-1-1-1h-1v-4h4C-156.3,349.2-155,350.6-155,352.2z"/>
			<path class="st0" d="M-170.5,342.2c1.9,0,3.5,4,3.5,9s-1.6,9-3.5,9s-3.5-4-3.5-9S-172.4,342.2-170.5,342.2z"/>
			<path class="st1" d="M-177,411.2v3c0,0.6-0.4,1-1,1h-53c-0.6,0-1-0.5-1-1v-3c0-0.6,0.4-1,1-1h53
				C-177.4,410.2-177,410.7-177,411.2z"/>
			<path class="st1" d="M-177,393.2v3c0,0.6-0.4,1-1,1h-53c-0.6,0-1-0.5-1-1v-3c0-0.6,0.4-1,1-1h53
				C-177.4,392.2-177,392.7-177,393.2z"/>
			<path class="st1" d="M-177,375.2v3c0,0.6-0.4,1-1,1h-53c-0.6,0-1-0.5-1-1v-3c0-0.6,0.4-1,1-1h53
				C-177.4,374.2-177,374.7-177,375.2z"/>
			<rect x="-185" y="349.2" class="st0" width="5" height="4"/>
			<path class="st0" d="M-193.5,342.2c1.9,0,3.5,4,3.5,9s-1.6,9-3.5,9s-3.5-4-3.5-9S-195.4,342.2-193.5,342.2z"/>
			<rect x="-207" y="349.2" class="st0" width="4" height="4"/>
			<path class="st0" d="M-216.5,342.2c1.9,0,3.5,4,3.5,9s-1.6,9-3.5,9s-3.5-4-3.5-9S-218.4,342.2-216.5,342.2z"/>
			<rect x="-230" y="349.2" class="st0" width="5" height="4"/>
			<path class="st0" d="M-239.5,342.2c1.9,0,3.5,4,3.5,9s-1.6,9-3.5,9s-3.5-4-3.5-9S-241.4,342.2-239.5,342.2z"/>
		</g>
		<g>
		</g>
	</g>
</g>
</svg>
