<?xml version="1.0" encoding="utf-8"?>
<!-- Generator: Adobe Illustrator 19.1.0, SVG Export Plug-In . SVG Version: 6.00 Build 0)  -->
<svg version="1.1" id="레이어_1" xmlns="http://www.w3.org/2000/svg" xmlns:xlink="http://www.w3.org/1999/xlink" x="0px"
	 y="0px" viewBox="-255 358.9 100 100.1" style="enable-background:new -255 358.9 100 100.1;" xml:space="preserve">
<style type="text/css">
	.st0{fill:#757575;}
	.st1{fill:#009688;}
</style>
<g>
	<g id="XMLID_1_">
		<g>
			<path class="st0" d="M-157.5,389v41.2c0,2.8-2,5.1-4.5,5.2h-86c-2.5,0-4.5-2.3-4.5-5.2V389c0-2.8,2-5.1,4.5-5.1h86
				C-159.5,383.9-157.5,386.2-157.5,389z M-160.5,430.2V428V389c0-0.5-0.2-0.9-0.4-1.2c-0.3-0.3-0.6-0.5-1.1-0.5h-86
				c-0.4,0-0.8,0.2-1.1,0.5c-0.3,0.3-0.4,0.8-0.4,1.2V428v2.3c0,0.5,0.2,0.9,0.4,1.2c0.3,0.3,0.6,0.5,1.1,0.5h86
				c0.4,0,0.8-0.2,1.1-0.5C-160.7,431.1-160.5,430.7-160.5,430.2z"/>
			<path class="st0" d="M-163,422.5v5.5c0,0.6-0.4,1.1-1,1.1h-12.4c-0.6,0-1-0.5-1-1.1v-5.5c0-0.6,0.4-1.1,1-1.1h12.4
				C-163.4,421.3-163,421.8-163,422.5z"/>
			<path class="st0" d="M-163,412.1v5.5c0,0.6-0.4,1.1-1,1.1h-5.2c-0.6,0-1-0.5-1-1.1v-5.5c0-0.6,0.4-1.1,1-1.1h5.2
				C-163.4,410.9-163,411.4-163,412.1z"/>
			<path class="st0" d="M-163,401.7v5.5c0,0.6-0.4,1.1-1,1.1h-10c-0.6,0-1-0.5-1-1.1v-5.5c0-0.6,0.4-1.1,1-1.1h10
				C-163.4,400.6-163,401.1-163,401.7z"/>
			<path class="st0" d="M-163,391.3v5.5c0,0.6-0.4,1.1-1,1.1h-5.2c-0.6,0-1-0.5-1-1.1v-5.5c0-0.6,0.4-1.1,1-1.1h5.2
				C-163.4,390.2-163,390.7-163,391.3z"/>
			<path class="st1" d="M-172.6,412.1v5.5c0,0.6-0.4,1.1-1,1.1h-5.2c-0.6,0-1-0.5-1-1.1v-5.5c0-0.6,0.4-1.1,1-1.1h5.2
				C-173.1,410.9-172.6,411.4-172.6,412.1z"/>
			<path class="st1" d="M-172.6,391.3v5.5c0,0.6-0.4,1.1-1,1.1h-5.2c-0.6,0-1-0.5-1-1.1v-5.5c0-0.6,0.4-1.1,1-1.1h5.2
				C-173.1,390.2-172.6,390.7-172.6,391.3z"/>
			<path class="st0" d="M-177.4,401.7v5.5c0,0.6-0.5,1.1-1,1.1h-5.2c-0.5,0-1-0.5-1-1.1v-5.5c0-0.6,0.5-1.1,1-1.1h5.2
				C-177.9,400.6-177.4,401.1-177.4,401.7z"/>
			<path class="st1" d="M-179.8,422.5v5.5c0,0.6-0.4,1.1-1,1.1h-48.4c-0.6,0-1-0.5-1-1.1v-5.5c0-0.6,0.4-1.1,1-1.1h48.4
				C-180.2,421.3-179.8,421.8-179.8,422.5z"/>
			<path class="st0" d="M-182.2,412.1v5.5c0,0.6-0.4,1.1-1,1.1h-5.2c-0.6,0-1-0.5-1-1.1v-5.5c0-0.6,0.4-1.1,1-1.1h5.2
				C-182.6,410.9-182.2,411.4-182.2,412.1z"/>
			<path class="st0" d="M-182.2,391.3v5.5c0,0.6-0.4,1.1-1,1.1h-5.2c-0.6,0-1-0.5-1-1.1v-5.5c0-0.6,0.4-1.1,1-1.1h5.2
				C-182.6,390.2-182.2,390.7-182.2,391.3z"/>
			<path class="st0" d="M-187,401.7v5.5c0,0.6-0.4,1.1-1,1.1h-5.2c-0.6,0-1-0.5-1-1.1v-5.5c0-0.6,0.4-1.1,1-1.1h5.2
				C-187.4,400.6-187,401.1-187,401.7z"/>
			<path class="st0" d="M-191.8,412.1v5.5c0,0.6-0.4,1.1-1,1.1h-5.2c-0.6,0-1-0.5-1-1.1v-5.5c0-0.6,0.4-1.1,1-1.1h5.2
				C-192.2,410.9-191.8,411.4-191.8,412.1z"/>
			<path class="st0" d="M-191.8,391.3v5.5c0,0.6-0.4,1.1-1,1.1h-5.2c-0.6,0-1-0.5-1-1.1v-5.5c0-0.6,0.4-1.1,1-1.1h5.2
				C-192.2,390.2-191.8,390.7-191.8,391.3z"/>
			<path class="st0" d="M-196.6,401.7v5.5c0,0.6-0.4,1.1-1,1.1h-5.2c-0.6,0-1-0.5-1-1.1v-5.5c0-0.6,0.4-1.1,1-1.1h5.2
				C-197.1,400.6-196.6,401.1-196.6,401.7z"/>
			<path class="st1" d="M-201.4,412.1v5.5c0,0.6-0.5,1.1-1,1.1h-5.2c-0.5,0-1-0.5-1-1.1v-5.5c0-0.6,0.5-1.1,1-1.1h5.2
				C-201.9,410.9-201.4,411.4-201.4,412.1z"/>
			<path class="st0" d="M-201.4,391.3v5.5c0,0.6-0.5,1.1-1,1.1h-5.2c-0.5,0-1-0.5-1-1.1v-5.5c0-0.6,0.5-1.1,1-1.1h5.2
				C-201.9,390.2-201.4,390.7-201.4,391.3z"/>
			<path class="st1" d="M-206.2,401.7v5.5c0,0.6-0.4,1.1-1,1.1h-5.2c-0.6,0-1-0.5-1-1.1v-5.5c0-0.6,0.4-1.1,1-1.1h5.2
				C-206.6,400.6-206.2,401.1-206.2,401.7z"/>
			<path class="st0" d="M-211,412.1v5.5c0,0.6-0.4,1.1-1,1.1h-5.2c-0.6,0-1-0.5-1-1.1v-5.5c0-0.6,0.4-1.1,1-1.1h5.2
				C-211.4,410.9-211,411.4-211,412.1z"/>
			<path class="st0" d="M-211,391.3v5.5c0,0.6-0.4,1.1-1,1.1h-5.2c-0.6,0-1-0.5-1-1.1v-5.5c0-0.6,0.4-1.1,1-1.1h5.2
				C-211.4,390.2-211,390.7-211,391.3z"/>
			<path class="st0" d="M-215.8,401.7v5.5c0,0.6-0.4,1.1-1,1.1h-5.2c-0.6,0-1-0.5-1-1.1v-5.5c0-0.6,0.4-1.1,1-1.1h5.2
				C-216.2,400.6-215.8,401.1-215.8,401.7z"/>
			<path class="st0" d="M-220.6,412.1v5.5c0,0.6-0.4,1.1-1,1.1h-5.2c-0.6,0-1-0.5-1-1.1v-5.5c0-0.6,0.4-1.1,1-1.1h5.2
				C-221.1,410.9-220.6,411.4-220.6,412.1z"/>
			<path class="st0" d="M-220.6,391.3v5.5c0,0.6-0.4,1.1-1,1.1h-5.2c-0.6,0-1-0.5-1-1.1v-5.5c0-0.6,0.4-1.1,1-1.1h5.2
				C-221.1,390.2-220.6,390.7-220.6,391.3z"/>
			<path class="st0" d="M-225.4,401.7v5.5c0,0.6-0.5,1.1-1,1.1h-5.2c-0.5,0-1-0.5-1-1.1v-5.5c0-0.6,0.5-1.1,1-1.1h5.2
				C-225.9,400.6-225.4,401.1-225.4,401.7z"/>
			<path class="st0" d="M-230.2,412.1v5.5c0,0.6-0.4,1.1-1,1.1h-5.2c-0.6,0-1-0.5-1-1.1v-5.5c0-0.6,0.4-1.1,1-1.1h5.2
				C-230.6,410.9-230.2,411.4-230.2,412.1z"/>
			<path class="st1" d="M-230.2,391.3v5.5c0,0.6-0.4,1.1-1,1.1h-5.2c-0.6,0-1-0.5-1-1.1v-5.5c0-0.6,0.4-1.1,1-1.1h5.2
				C-230.6,390.2-230.2,390.7-230.2,391.3z"/>
			<path class="st0" d="M-232.6,422.5v5.5c0,0.6-0.4,1.1-1,1.1H-246c-0.6,0-1-0.5-1-1.1v-5.5c0-0.6,0.4-1.1,1-1.1h12.4
				C-233.1,421.3-232.6,421.8-232.6,422.5z"/>
			<path class="st1" d="M-235,401.7v5.5c0,0.6-0.4,1.1-1,1.1h-10c-0.6,0-1-0.5-1-1.1v-5.5c0-0.6,0.4-1.1,1-1.1h10
				C-235.4,400.6-235,401.1-235,401.7z"/>
			<path class="st0" d="M-239.8,412.1v5.5c0,0.6-0.4,1.1-1,1.1h-5.2c-0.6,0-1-0.5-1-1.1v-5.5c0-0.6,0.4-1.1,1-1.1h5.2
				C-240.2,410.9-239.8,411.4-239.8,412.1z"/>
			<path class="st0" d="M-239.8,391.3v5.5c0,0.6-0.4,1.1-1,1.1h-5.2c-0.6,0-1-0.5-1-1.1v-5.5c0-0.6,0.4-1.1,1-1.1h5.2
				C-240.2,390.2-239.8,390.7-239.8,391.3z"/>
		</g>
		<g>
		</g>
	</g>
</g>
</svg>
