<?xml version="1.0" encoding="utf-8"?>
<!-- Generator: Adobe Illustrator 19.1.0, SVG Export Plug-In . SVG Version: 6.00 Build 0)  -->
<svg version="1.1" id="레이어_1" xmlns="http://www.w3.org/2000/svg" xmlns:xlink="http://www.w3.org/1999/xlink" x="0px"
	 y="0px" viewBox="-293 382 24 24" style="enable-background:new -293 382 24 24;" xml:space="preserve">
<style type="text/css">
	.st0{fill:#757575;}
	.st1{fill:#009688;}
</style>
<g>
	<g id="XMLID_1_">
		<g>
			<path class="st0" d="M-270,398.5v2c0,0.3-0.2,0.5-0.5,0.5s-0.5-0.2-0.5-0.5v-2c0-0.3,0.2-0.5,0.5-0.5S-270,398.2-270,398.5z"/>
			<path class="st0" d="M-270,393v2c0,0.3-0.2,0.5-0.5,0.5s-0.5-0.2-0.5-0.5v-2c0-0.3,0.2-0.5,0.5-0.5S-270,392.7-270,393z"/>
			<path class="st0" d="M-270,387.5v2c0,0.3-0.2,0.5-0.5,0.5s-0.5-0.2-0.5-0.5v-2c0-0.3,0.2-0.5,0.5-0.5S-270,387.2-270,387.5z"/>
			<path class="st0" d="M-271.5,382h2c0.3,0,0.5,0.2,0.5,0.5v2c0,0.3-0.2,0.5-0.5,0.5h-2c-0.3,0-0.5-0.2-0.5-0.5v-2
				C-272,382.2-271.8,382-271.5,382z M-270,384v-1h-1v1H-270z"/>
			<path class="st0" d="M-271.5,403h2c0.3,0,0.5,0.2,0.5,0.5v2c0,0.3-0.2,0.5-0.5,0.5h-2c-0.3,0-0.5-0.2-0.5-0.5v-2
				C-272,403.2-271.8,403-271.5,403z M-270,405v-1h-1v1H-270z"/>
			<path class="st0" d="M-274.5,383c0.3,0,0.5,0.2,0.5,0.5s-0.2,0.5-0.5,0.5h-2c-0.3,0-0.5-0.2-0.5-0.5s0.2-0.5,0.5-0.5H-274.5z"/>
			<path class="st0" d="M-274.5,404c0.3,0,0.5,0.2,0.5,0.5s-0.2,0.5-0.5,0.5h-2c-0.3,0-0.5-0.2-0.5-0.5s0.2-0.5,0.5-0.5H-274.5z"/>
			<path class="st0" d="M-280,383c0.3,0,0.5,0.2,0.5,0.5s-0.2,0.5-0.5,0.5h-2c-0.3,0-0.5-0.2-0.5-0.5s0.2-0.5,0.5-0.5H-280z"/>
			<path class="st0" d="M-280,404c0.3,0,0.5,0.2,0.5,0.5s-0.2,0.5-0.5,0.5h-2c-0.3,0-0.5-0.2-0.5-0.5s0.2-0.5,0.5-0.5H-280z"/>
			<path class="st0" d="M-285.5,383c0.3,0,0.5,0.2,0.5,0.5s-0.2,0.5-0.5,0.5h-2c-0.3,0-0.5-0.2-0.5-0.5s0.2-0.5,0.5-0.5H-285.5z"/>
			<path class="st0" d="M-285.5,404c0.3,0,0.5,0.2,0.5,0.5s-0.2,0.5-0.5,0.5h-2c-0.3,0-0.5-0.2-0.5-0.5s0.2-0.5,0.5-0.5H-285.5z"/>
			<path class="st1" d="M-288.5,386h15c0.3,0,0.5,0.2,0.5,0.5v5c0,0.3-0.2,0.5-0.5,0.5s-0.5-0.2-0.5-0.5c0-0.8-0.7-1.5-1.5-1.5h-3.5
				v9.5c0,0.8,0.7,1.5,1.5,1.5h0h0c0.3,0,0.5,0.2,0.5,0.5s-0.2,0.5-0.5,0.5c0,0,0,0,0,0h-7c-0.3,0-0.5-0.2-0.5-0.5s0.2-0.5,0.5-0.5
				c0.8,0,1.5-0.7,1.5-1.5V390h-3.5c-0.8,0-1.5,0.7-1.5,1.5c0,0.3-0.2,0.5-0.5,0.5s-0.5-0.2-0.5-0.5v-5
				C-289,386.2-288.8,386-288.5,386z M-274,389.5V387h-14v2.5c0.4-0.3,0.9-0.5,1.5-0.5h4c0.3,0,0.5,0.2,0.5,0.5v10
				c0,0.6-0.2,1.1-0.5,1.5h3c-0.3-0.4-0.5-0.9-0.5-1.5v-10c0-0.3,0.2-0.5,0.5-0.5h4C-274.9,389-274.4,389.2-274,389.5z"/>
			<path class="st0" d="M-291,398.5v2c0,0.3-0.2,0.5-0.5,0.5s-0.5-0.2-0.5-0.5v-2c0-0.3,0.2-0.5,0.5-0.5S-291,398.2-291,398.5z"/>
			<path class="st0" d="M-291,393v2c0,0.3-0.2,0.5-0.5,0.5s-0.5-0.2-0.5-0.5v-2c0-0.3,0.2-0.5,0.5-0.5S-291,392.7-291,393z"/>
			<path class="st0" d="M-291,387.5v2c0,0.3-0.2,0.5-0.5,0.5s-0.5-0.2-0.5-0.5v-2c0-0.3,0.2-0.5,0.5-0.5S-291,387.2-291,387.5z"/>
			<path class="st0" d="M-291,384v-1h-1v1H-291z M-290,382.5v2c0,0.3-0.2,0.5-0.5,0.5h-2c-0.3,0-0.5-0.2-0.5-0.5v-2
				c0-0.3,0.2-0.5,0.5-0.5h2C-290.2,382-290,382.2-290,382.5z"/>
			<path class="st0" d="M-291,405v-1h-1v1H-291z M-290,403.5v2c0,0.3-0.2,0.5-0.5,0.5h-2c-0.3,0-0.5-0.2-0.5-0.5v-2
				c0-0.3,0.2-0.5,0.5-0.5h2C-290.2,403-290,403.2-290,403.5z"/>
		</g>
		<g>
		</g>
	</g>
</g>
</svg>
