<?xml version="1.0" encoding="utf-8"?>
<!-- Generator: Adobe Illustrator 19.1.0, SVG Export Plug-In . SVG Version: 6.00 Build 0)  -->
<svg version="1.1" id="레이어_1" xmlns="http://www.w3.org/2000/svg" xmlns:xlink="http://www.w3.org/1999/xlink" x="0px"
	 y="0px" viewBox="-255 346.9 100 100.1" style="enable-background:new -255 346.9 100 100.1;" xml:space="preserve">
<style type="text/css">
	.st0{fill:#9E9E9E;}
	.st1{fill:#009688;}
</style>
<g>
	<g id="XMLID_1_">
		<g>
			<path class="st0" d="M-157.5,415.3v2.2c0,2.8-2,5.1-4.5,5.2h-86c-2.4,0-4.4-2.2-4.5-5l3-0.1c0,0.5,0.2,0.9,0.4,1.2
				c0.3,0.3,0.6,0.5,1.1,0.5h86c0.4,0,0.8-0.2,1.1-0.5c0.2-0.4,0.4-0.8,0.4-1.3v-2.2H-157.5z"/>
			<path class="st0" d="M-157.5,376.3v39h-3v-39c0-0.5-0.2-0.9-0.4-1.2c-0.3-0.3-0.6-0.5-1.1-0.5h-86c-0.4,0-0.8,0.2-1.1,0.5
				c-0.3,0.3-0.4,0.8-0.4,1.2v39v2.3l-3,0.1c0-0.1,0-0.1,0-0.2v-41.2c0-2.8,2-5.1,4.5-5.1h86C-159.5,371.2-157.5,373.5-157.5,376.3z
				"/>
			<path class="st0" d="M-163,409.8v5.5c0,0.6-0.4,1.1-1,1.1h-12.4c-0.6,0-1-0.5-1-1.1v-5.5c0-0.6,0.4-1.1,1-1.1h12.4
				C-163.4,408.6-163,409.1-163,409.8z"/>
			<path class="st0" d="M-163,399.4v5.5c0,0.6-0.4,1.1-1,1.1h-5.2c-0.6,0-1-0.5-1-1.1v-5.5c0-0.6,0.4-1.1,1-1.1h5.2
				C-163.4,398.2-163,398.7-163,399.4z"/>
			<path class="st0" d="M-163,389v5.5c0,0.6-0.4,1.1-1,1.1h-10c-0.6,0-1-0.5-1-1.1V389c0-0.6,0.4-1.1,1-1.1h10
				C-163.4,387.9-163,388.4-163,389z"/>
			<path class="st0" d="M-163,378.6v5.5c0,0.6-0.4,1.1-1,1.1h-5.2c-0.6,0-1-0.5-1-1.1v-5.5c0-0.6,0.4-1.1,1-1.1h5.2
				C-163.4,377.5-163,378-163,378.6z"/>
			<path class="st1" d="M-172.6,399.4v5.5c0,0.6-0.4,1.1-1,1.1h-5.2c-0.6,0-1-0.5-1-1.1v-5.5c0-0.6,0.4-1.1,1-1.1h5.2
				C-173.1,398.2-172.6,398.7-172.6,399.4z"/>
			<path class="st1" d="M-172.6,378.6v5.5c0,0.6-0.4,1.1-1,1.1h-5.2c-0.6,0-1-0.5-1-1.1v-5.5c0-0.6,0.4-1.1,1-1.1h5.2
				C-173.1,377.5-172.6,378-172.6,378.6z"/>
			<path class="st0" d="M-177.4,389v5.5c0,0.6-0.5,1.1-1,1.1h-5.2c-0.5,0-1-0.5-1-1.1V389c0-0.6,0.5-1.1,1-1.1h5.2
				C-177.9,387.9-177.4,388.4-177.4,389z"/>
			<path class="st1" d="M-179.8,409.8v5.5c0,0.6-0.4,1.1-1,1.1h-48.4c-0.6,0-1-0.5-1-1.1v-5.5c0-0.6,0.4-1.1,1-1.1h48.4
				C-180.2,408.6-179.8,409.1-179.8,409.8z"/>
			<path class="st0" d="M-182.2,399.4v5.5c0,0.6-0.4,1.1-1,1.1h-5.2c-0.6,0-1-0.5-1-1.1v-5.5c0-0.6,0.4-1.1,1-1.1h5.2
				C-182.6,398.2-182.2,398.7-182.2,399.4z"/>
			<path class="st0" d="M-182.2,378.6v5.5c0,0.6-0.4,1.1-1,1.1h-5.2c-0.6,0-1-0.5-1-1.1v-5.5c0-0.6,0.4-1.1,1-1.1h5.2
				C-182.6,377.5-182.2,378-182.2,378.6z"/>
			<path class="st0" d="M-187,389v5.5c0,0.6-0.4,1.1-1,1.1h-5.2c-0.6,0-1-0.5-1-1.1V389c0-0.6,0.4-1.1,1-1.1h5.2
				C-187.4,387.9-187,388.4-187,389z"/>
			<path class="st0" d="M-191.8,399.4v5.5c0,0.6-0.4,1.1-1,1.1h-5.2c-0.6,0-1-0.5-1-1.1v-5.5c0-0.6,0.4-1.1,1-1.1h5.2
				C-192.2,398.2-191.8,398.7-191.8,399.4z"/>
			<path class="st0" d="M-191.8,378.6v5.5c0,0.6-0.4,1.1-1,1.1h-5.2c-0.6,0-1-0.5-1-1.1v-5.5c0-0.6,0.4-1.1,1-1.1h5.2
				C-192.2,377.5-191.8,378-191.8,378.6z"/>
			<path class="st0" d="M-196.6,389v5.5c0,0.6-0.4,1.1-1,1.1h-5.2c-0.6,0-1-0.5-1-1.1V389c0-0.6,0.4-1.1,1-1.1h5.2
				C-197.1,387.9-196.6,388.4-196.6,389z"/>
			<path class="st1" d="M-201.4,399.4v5.5c0,0.6-0.5,1.1-1,1.1h-5.2c-0.5,0-1-0.5-1-1.1v-5.5c0-0.6,0.5-1.1,1-1.1h5.2
				C-201.9,398.2-201.4,398.7-201.4,399.4z"/>
			<path class="st0" d="M-201.4,378.6v5.5c0,0.6-0.5,1.1-1,1.1h-5.2c-0.5,0-1-0.5-1-1.1v-5.5c0-0.6,0.5-1.1,1-1.1h5.2
				C-201.9,377.5-201.4,378-201.4,378.6z"/>
			<path class="st1" d="M-206.2,389v5.5c0,0.6-0.4,1.1-1,1.1h-5.2c-0.6,0-1-0.5-1-1.1V389c0-0.6,0.4-1.1,1-1.1h5.2
				C-206.6,387.9-206.2,388.4-206.2,389z"/>
			<path class="st0" d="M-211,399.4v5.5c0,0.6-0.4,1.1-1,1.1h-5.2c-0.6,0-1-0.5-1-1.1v-5.5c0-0.6,0.4-1.1,1-1.1h5.2
				C-211.4,398.2-211,398.7-211,399.4z"/>
			<path class="st0" d="M-211,378.6v5.5c0,0.6-0.4,1.1-1,1.1h-5.2c-0.6,0-1-0.5-1-1.1v-5.5c0-0.6,0.4-1.1,1-1.1h5.2
				C-211.4,377.5-211,378-211,378.6z"/>
			<path class="st0" d="M-215.8,389v5.5c0,0.6-0.4,1.1-1,1.1h-5.2c-0.6,0-1-0.5-1-1.1V389c0-0.6,0.4-1.1,1-1.1h5.2
				C-216.2,387.9-215.8,388.4-215.8,389z"/>
			<path class="st0" d="M-220.6,399.4v5.5c0,0.6-0.4,1.1-1,1.1h-5.2c-0.6,0-1-0.5-1-1.1v-5.5c0-0.6,0.4-1.1,1-1.1h5.2
				C-221.1,398.2-220.6,398.7-220.6,399.4z"/>
			<path class="st0" d="M-220.6,378.6v5.5c0,0.6-0.4,1.1-1,1.1h-5.2c-0.6,0-1-0.5-1-1.1v-5.5c0-0.6,0.4-1.1,1-1.1h5.2
				C-221.1,377.5-220.6,378-220.6,378.6z"/>
			<path class="st0" d="M-225.4,389v5.5c0,0.6-0.5,1.1-1,1.1h-5.2c-0.5,0-1-0.5-1-1.1V389c0-0.6,0.5-1.1,1-1.1h5.2
				C-225.9,387.9-225.4,388.4-225.4,389z"/>
			<path class="st0" d="M-230.2,399.4v5.5c0,0.6-0.4,1.1-1,1.1h-5.2c-0.6,0-1-0.5-1-1.1v-5.5c0-0.6,0.4-1.1,1-1.1h5.2
				C-230.6,398.2-230.2,398.7-230.2,399.4z"/>
			<path class="st1" d="M-230.2,378.6v5.5c0,0.6-0.4,1.1-1,1.1h-5.2c-0.6,0-1-0.5-1-1.1v-5.5c0-0.6,0.4-1.1,1-1.1h5.2
				C-230.6,377.5-230.2,378-230.2,378.6z"/>
			<path class="st0" d="M-232.6,409.8v5.5c0,0.6-0.4,1.1-1,1.1H-246c-0.6,0-1-0.5-1-1.1v-5.5c0-0.6,0.4-1.1,1-1.1h12.4
				C-233.1,408.6-232.6,409.1-232.6,409.8z"/>
			<path class="st1" d="M-235,389v5.5c0,0.6-0.4,1.1-1,1.1h-10c-0.6,0-1-0.5-1-1.1V389c0-0.6,0.4-1.1,1-1.1h10
				C-235.4,387.9-235,388.4-235,389z"/>
			<path class="st0" d="M-239.8,399.4v5.5c0,0.6-0.4,1.1-1,1.1h-5.2c-0.6,0-1-0.5-1-1.1v-5.5c0-0.6,0.4-1.1,1-1.1h5.2
				C-240.2,398.2-239.8,398.7-239.8,399.4z"/>
			<path class="st0" d="M-239.8,378.6v5.5c0,0.6-0.4,1.1-1,1.1h-5.2c-0.6,0-1-0.5-1-1.1v-5.5c0-0.6,0.4-1.1,1-1.1h5.2
				C-240.2,377.5-239.8,378-239.8,378.6z"/>
		</g>
		<g>
		</g>
	</g>
</g>
</svg>
