<?xml version="1.0" encoding="utf-8"?>
<!-- Generator: Adobe Illustrator 19.1.0, SVG Export Plug-In . SVG Version: 6.00 Build 0)  -->
<svg version="1.1" id="레이어_1" xmlns="http://www.w3.org/2000/svg" xmlns:xlink="http://www.w3.org/1999/xlink" x="0px"
	 y="0px" viewBox="-255 334 100 125" style="enable-background:new -255 334 100 125;" xml:space="preserve">
<style type="text/css">
	.st0{fill:#FAFAFA;}
</style>
<path class="st0" d="M-204.9,367.6l5.6-19.9c0.3-0.9,1.2-1.4,2.1-1.2c0.9,0.3,1.4,1.2,1.2,2.1l-5.6,19.9c-0.2,0.8-0.9,1.3-1.7,1.3
	c-0.2,0-0.3,0-0.5-0.1C-204.6,369.5-205.1,368.5-204.9,367.6z M-223.7,377.2h37.5c0.9,0,1.7-0.8,1.7-1.7s-0.8-1.7-1.7-1.7h-37.5
	c-0.9,0-1.7,0.8-1.7,1.7S-224.7,377.2-223.7,377.2z M-180.6,383.1c0,0,0,0.1,0,0.1l-10,59.2c-0.1,0.8-0.9,1.4-1.7,1.4h-25.5
	c-0.8,0-1.6-0.6-1.7-1.4l-10-59.2c0,0,0-0.1,0-0.1s0-0.1,0-0.1c0-0.1,0-0.1,0-0.2c0-0.1,0-0.2,0.1-0.3c0-0.1,0.1-0.2,0.1-0.3
	c0.1-0.1,0.1-0.2,0.2-0.3c0.1-0.1,0.1-0.2,0.2-0.2c0.1-0.1,0.2-0.1,0.3-0.2c0.1-0.1,0.2-0.1,0.3-0.1c0.1,0,0.1-0.1,0.2-0.1
	c0,0,0.1,0,0.1,0c0,0,0.1,0,0.1,0h45.4c0,0,0.1,0,0.1,0c0,0,0.1,0,0.1,0c0.1,0,0.1,0.1,0.2,0.1c0.1,0,0.2,0.1,0.3,0.1
	c0.1,0.1,0.2,0.1,0.3,0.2c0.1,0.1,0.2,0.1,0.2,0.2c0.1,0.1,0.1,0.2,0.2,0.3c0.1,0.1,0.1,0.2,0.1,0.3c0,0.1,0.1,0.2,0.1,0.3
	c0,0.1,0,0.1,0,0.2C-180.6,383-180.6,383.1-180.6,383.1z M-189,412.5l-17.9,10.7c-0.3,0.2-0.6,0.2-0.9,0.2c-0.6,0-1.2-0.3-1.5-0.8
	c-0.5-0.8-0.2-1.9,0.6-2.4l20.4-12.2l1.1-6.8l-21.3,12.7c-0.3,0.2-0.6,0.2-0.9,0.2c-0.6,0-1.2-0.3-1.5-0.8c-0.5-0.8-0.2-1.9,0.6-2.4
	l23.8-14.2l2-12.2h-41.4l9.4,55.8h22.6L-189,412.5z"/>
</svg>
