<?xml version="1.0" encoding="utf-8"?>
<!-- Generator: Adobe Illustrator 19.1.0, SVG Export Plug-In . SVG Version: 6.00 Build 0)  -->
<svg version="1.1" id="레이어_1" xmlns="http://www.w3.org/2000/svg" xmlns:xlink="http://www.w3.org/1999/xlink" x="0px"
	 y="0px" viewBox="-255 334 100 100.1" style="enable-background:new -255 334 100 100.1;" xml:space="preserve">
<style type="text/css">
	.st0{fill:#00695C;}
	.st1{fill:#B2DFDB;}
	.st2{fill:#009688;}
</style>
<g id="XMLID_1_">
	<g>
		<path class="st0" d="M-200.3,411.6c-14.4-5.2-22.6-19.5-18.6-32l2.4,0.9c-3.7,11.5,3.8,24.5,16.9,29.2c3.3,1.2,6.7,1.8,9.9,1.8
			c9.6,0,18.3-5,21.8-13.3l2.4,0.9C-170.5,411.2-185.9,416.8-200.3,411.6z"/>
		<path class="st1" d="M-169.4,397.6c-4.3,10.3-17.4,15.1-29.8,10.6c-12.3-4.5-19.3-16.6-16-27.3l3.6,1.3
			c2.7,6.9,8.7,12.6,16.3,15.4c3.2,1.2,6.6,1.8,9.9,1.8c4.4,0,8.7-1,12.4-3.1L-169.4,397.6z"/>
		<path class="st1" d="M-199.8,372.2c0-0.3-0.1-0.6-0.3-0.8c-0.4-0.4-1.2-0.4-1.6,0c-0.2,0.2-0.3,0.5-0.3,0.8c0,0.3,0.1,0.6,0.3,0.8
			c0.2,0.2,0.5,0.3,0.8,0.3s0.6-0.1,0.8-0.3C-199.9,372.8-199.8,372.5-199.8,372.2z M-198.6,368.5c0-0.3-0.1-0.6-0.3-0.8
			c-0.4-0.4-1.2-0.4-1.6,0c-0.2,0.2-0.3,0.5-0.3,0.8c0,0.3,0.1,0.6,0.3,0.8c0.2,0.2,0.5,0.3,0.8,0.3c0.3,0,0.6-0.1,0.8-0.3
			C-198.7,369.1-198.6,368.8-198.6,368.5z M-196.1,371.6c0-0.3-0.1-0.6-0.3-0.8c-0.4-0.4-1.2-0.4-1.6,0c-0.2,0.2-0.3,0.5-0.3,0.8
			c0,0.3,0.1,0.6,0.3,0.8c0.2,0.2,0.5,0.3,0.8,0.3s0.6-0.1,0.8-0.3C-196.3,372.1-196.1,371.9-196.1,371.6z M-203,366.9
			c0.2,0.2,0.5,0.3,0.8,0.3s0.6-0.1,0.8-0.3c0.2-0.2,0.3-0.5,0.3-0.8c0-0.3-0.1-0.6-0.3-0.8c-0.4-0.4-1.2-0.4-1.6,0
			c-0.2,0.2-0.3,0.5-0.3,0.8C-203.3,366.4-203.2,366.6-203,366.9z M-216.3,357.7c14.2,0,25.8,11.6,25.8,25.8c0,4.5-1.2,8.9-3.4,12.7
			l-0.1,0.2c-0.2-0.1-0.5-0.2-0.8-0.2c-7.2-2.6-13-8.2-15.5-14.8h0c-0.1-0.2-0.2-0.4-0.4-0.5l-5.3-1.9l-3.1-1.1
			c-0.2-0.1-0.4-0.1-0.6,0c-0.2,0.1-0.3,0.2-0.4,0.4c-3.9,10.7,0.8,22.7,10.6,30c-2.2,0.6-4.5,0.9-6.8,0.9
			c-14.2,0-25.8-11.6-25.8-25.8C-242.1,369.3-230.5,357.7-216.3,357.7z M-202.2,369.7c0-0.3-0.1-0.6-0.3-0.8c-0.4-0.4-1.2-0.4-1.6,0
			c-0.2,0.2-0.3,0.5-0.3,0.8s0.1,0.6,0.3,0.8c0.2,0.2,0.5,0.3,0.8,0.3s0.6-0.1,0.8-0.3C-202.4,370.3-202.2,370-202.2,369.7z"/>
		<path class="st0" d="M-196.1,371.6c0,0.3-0.1,0.6-0.3,0.8c-0.2,0.2-0.5,0.3-0.8,0.3s-0.6-0.1-0.8-0.3c-0.2-0.2-0.3-0.5-0.3-0.8
			c0-0.3,0.1-0.6,0.3-0.8c0.4-0.4,1.2-0.4,1.6,0C-196.3,371-196.1,371.2-196.1,371.6z"/>
		<path class="st0" d="M-198.6,368.5c0,0.3-0.1,0.6-0.3,0.8c-0.2,0.2-0.5,0.3-0.8,0.3c-0.3,0-0.6-0.1-0.8-0.3
			c-0.2-0.2-0.3-0.5-0.3-0.8c0-0.3,0.1-0.6,0.3-0.8c0.4-0.4,1.2-0.4,1.6,0C-198.7,367.9-198.6,368.2-198.6,368.5z"/>
		<path class="st0" d="M-200.1,371.4c0.2,0.2,0.3,0.5,0.3,0.8c0,0.3-0.1,0.6-0.3,0.8c-0.2,0.2-0.5,0.3-0.8,0.3s-0.6-0.1-0.8-0.3
			c-0.2-0.2-0.3-0.5-0.3-0.8c0-0.3,0.1-0.6,0.3-0.8C-201.3,370.9-200.6,370.9-200.1,371.4z"/>
		<path class="st0" d="M-202.2,367.2c-0.3,0-0.6-0.1-0.8-0.3c-0.2-0.2-0.3-0.5-0.3-0.8c0-0.3,0.1-0.6,0.3-0.8c0.4-0.4,1.2-0.4,1.6,0
			c0.2,0.2,0.3,0.5,0.3,0.8c0,0.3-0.1,0.6-0.3,0.8C-201.6,367.1-201.9,367.2-202.2,367.2z"/>
		<path class="st0" d="M-202.2,369.7c0,0.3-0.1,0.6-0.3,0.8c-0.2,0.2-0.5,0.3-0.8,0.3s-0.6-0.1-0.8-0.3c-0.2-0.2-0.3-0.5-0.3-0.8
			s0.1-0.6,0.3-0.8c0.4-0.4,1.2-0.4,1.6,0C-202.4,369.1-202.2,369.4-202.2,369.7z"/>
		<path class="st2" d="M-218.9,379.6c-4,12.5,4.2,26.7,18.6,32c14.4,5.2,29.8-0.4,34.8-12.5l-2.4-0.9c-3.4,8.3-12.1,13.3-21.8,13.3
			c-3.3,0-6.6-0.6-9.9-1.8c-13.1-4.8-20.5-17.8-16.9-29.2L-218.9,379.6z M-195.2,397.6c-7.5-2.7-13.6-8.5-16.3-15.4l-3.6-1.3
			c-3.4,10.7,3.7,22.8,16,27.3c12.3,4.5,25.4-0.3,29.8-10.6l-3.6-1.3c-3.7,2-8,3.1-12.4,3.1C-188.6,399.4-192,398.8-195.2,397.6z
			 M-234.6,362.3c4.9-4.3,11.3-6.8,18.3-6.8c15.5,0,28.1,12.6,28.1,28.1c0,4.8-1.2,9.5-3.5,13.6c6.4,1.5,13.1,0.8,18.4-2.2v0
			c0.2-0.1,0.4-0.1,0.6-0.1l5.3,1.9l3.1,1.1c0.2,0.1,0.4,0.2,0.4,0.4c0.1,0.2,0.1,0.4,0,0.6c-3.7,10.1-14,16.2-25.5,16.2
			c-3.8,0-7.7-0.7-11.5-2.1c-2.2-0.8-4.3-1.8-6.2-3l-1.1,0.3c-2.7,0.8-5.4,1.2-8.2,1.2c-15.5,0-28.1-12.6-28.1-28.1
			c0-7.6,3.1-14.6,8.1-19.7l-2.4-2.4c-3.4,3.3-5.8,4.7-5.9,4.8c-0.2,0.1-0.4,0.1-0.6,0.1c-0.4,0-0.8-0.2-1-0.6
			c-0.3-0.5-0.1-1.2,0.4-1.6c0,0,2.4-1.4,5.9-4.9s4.8-5.8,4.9-5.9c0.3-0.5,1-0.7,1.6-0.4s0.7,1,0.4,1.6c-0.1,0.1-1.2,2.1-4.1,5.2
			L-234.6,362.3z M-209.5,408.4c-9.8-7.3-14.5-19.3-10.6-30c0.1-0.2,0.2-0.4,0.4-0.4c0.2-0.1,0.4-0.1,0.6,0l3.1,1.1l5.3,1.9
			c0.2,0.1,0.4,0.3,0.4,0.5h0c2.5,6.6,8.3,12.1,15.5,14.8c0.2,0.1,0.5,0.2,0.8,0.2l0.1-0.2c2.2-3.9,3.4-8.3,3.4-12.7
			c0-14.2-11.6-25.8-25.8-25.8c-14.2,0-25.8,11.6-25.8,25.8c0,14.2,11.6,25.8,25.8,25.8C-214,409.3-211.7,409-209.5,408.4z"/>
	</g>
	<g>
	</g>
</g>
</svg>
