<?xml version="1.0" encoding="utf-8"?>
<!-- Generator: Adobe Illustrator 19.1.0, SVG Export Plug-In . SVG Version: 6.00 Build 0)  -->
<svg version="1.1" id="레이어_1" xmlns="http://www.w3.org/2000/svg" xmlns:xlink="http://www.w3.org/1999/xlink" x="0px"
	 y="0px" viewBox="-281 367 48 60" style="enable-background:new -281 367 48 60;" xml:space="preserve">
<style type="text/css">
	.st0{fill:#FFFFFF;}
</style>
<g>
	<path class="st0" d="M-261.6,398c-9.2,0-16.7-8.4-16.7-18.7c0-0.6,0-1.3,0.1-1.9c0-0.5,0.5-0.9,1-0.9h31.3c0.5,0,0.9,0.4,1,0.9
		c0.1,0.6,0.1,1.3,0.1,1.9C-244.9,389.6-252.4,398-261.6,398z M-276.4,378.5c0,0.3,0,0.6,0,0.8c0,9.2,6.6,16.7,14.7,16.7
		c8.1,0,14.7-7.5,14.7-16.7c0-0.3,0-0.5,0-0.8C-246.9,378.5-276.4,378.5-276.4,378.5z"/>
	<path class="st0" d="M-261.6,415c-0.6,0-1-0.4-1-1v-16.2c0-0.6,0.4-1,1-1s1,0.4,1,1V414C-260.6,414.6-261.1,415-261.6,415z"/>
	<path class="st0" d="M-254.1,415h-15.1c-0.6,0-1-0.4-1-1s0.4-1,1-1h15.1c0.6,0,1,0.4,1,1S-253.5,415-254.1,415z"/>
	<path class="st0" d="M-256.9,387c-0.7,0-1.4-0.1-2.1-0.5c-0.4-0.2-0.9-0.4-1.3-0.6c-1-0.5-2-1-2.9-1.2c-1.2-0.2-2.6-0.1-4.4,0.4
		l-0.4,0.1c-1.5,0.4-3.1,0.9-4.8,0.8c-1.1,0-2.1-0.4-3-0.9c-0.2-0.1-0.3-0.2-0.5-0.4c-0.2-0.2-0.4-0.3-0.6-0.4
		c-0.5-0.1-0.9-0.7-0.7-1.2c0.1-0.5,0.7-0.9,1.2-0.7c0.6,0.1,1,0.5,1.3,0.7c0.1,0.1,0.2,0.2,0.4,0.3c0.6,0.4,1.2,0.6,2,0.6
		c1.4,0,2.8-0.4,4.2-0.8l0.4-0.1c1.3-0.4,3.3-0.8,5.3-0.5c1.3,0.2,2.4,0.8,3.5,1.4c0.4,0.2,0.8,0.4,1.2,0.6c1.2,0.6,2.5,0.1,3.9-0.4
		c0.8-0.3,1.6-0.6,2.5-0.7c2.2-0.3,3.8,0,5.2,1.2c0.4,0.3,0.5,1,0.2,1.4c-0.3,0.4-1,0.5-1.4,0.2c-1-0.8-2-1-3.7-0.8
		c-0.7,0.1-1.4,0.4-2.1,0.6C-254.6,386.6-255.8,387-256.9,387z"/>
	<path class="st0" d="M-263,384.7c-0.3,0-0.5-0.1-0.7-0.3l-14.3-15.7c-0.4-0.4-0.3-1,0.1-1.4c0.4-0.4,1-0.3,1.4,0.1l14.4,15.7
		c0.4,0.4,0.3,1-0.1,1.4C-262.5,384.6-262.8,384.7-263,384.7z"/>
	<path class="st0" d="M-245.9,387.5c-0.6,0-1-0.4-1-1s0.4-1,1-1c4.5,0,8.2-3.7,8.2-8.2c0-4.5-3.7-8.2-8.2-8.2
		c-4.5,0-8.2,3.7-8.2,8.2c0,0.6-0.4,1-1,1s-1-0.4-1-1c0-5.7,4.6-10.2,10.2-10.2c5.6,0,10.2,4.6,10.2,10.2S-240.2,387.5-245.9,387.5z
		"/>
	<path class="st0" d="M-245.9,378.1c-0.6,0-1-0.4-1-1v-8.6c0-0.6,0.4-1,1-1s1,0.4,1,1v8.6C-244.9,377.6-245.3,378.1-245.9,378.1z"/>
	<path class="st0" d="M-237.2,378.1h-8.4c-0.6,0-1-0.4-1-1s0.4-1,1-1h8.4c0.6,0,1,0.4,1,1S-236.6,378.1-237.2,378.1z"/>
	<path class="st0" d="M-239.3,384c-0.2,0-0.5-0.1-0.7-0.3l-12.8-11.8c-0.4-0.4-0.4-1-0.1-1.4c0.4-0.4,1-0.4,1.4-0.1l12.8,11.8
		c0.4,0.4,0.4,1,0.1,1.4C-238.7,383.9-239,384-239.3,384z"/>
	<path class="st0" d="M-245.6,377.8c-0.3,0-0.5-0.1-0.7-0.3c-0.4-0.4-0.4-1,0-1.4l5.9-5.6c0.4-0.4,1-0.4,1.4,0c0.4,0.4,0.4,1,0,1.4
		l-5.9,5.6C-245.1,377.7-245.3,377.8-245.6,377.8z"/>
</g>
</svg>
